# xmcd
#
# Track frame offsets: 
#        150
#        13452
#        27454
#        41634
#        54802
#
# Disc length: 898 seconds
#
# Revision: 0
# Processed by: cddbd v1.5.2PL0 Copyright (c) Steve Scherf et al.
# Submitted via: ExactAudioCopy v0.95b4
#
DISCID=3b038005
DTITLE=Nelson Colt - All Your Love
DYEAR=2006
DGENRE=Country
TTITLE0=The Reason
TTITLE1=All Your Love
TTITLE2=The Auctioneer
TTITLE3=That Was Then, This Is Now
TTITLE4=Doing Hard Time
EXTD=
EXTT0=
EXTT1=
EXTT2=
EXTT3=
EXTT4=
PLAYORDER=
